<svg width="240" height="20" viewBox="0 0 240 20" fill="none" xmlns="http://www.w3.org/2000/svg">
  <rect width="240" height="20" rx="3" fill="#E2C5A6"/>
  <rect y="1" width="240" height="18" rx="2" fill="#F3E5CF"/>
  <rect y="2" width="240" height="16" fill="#E9D0AF"/>

  <g transform="translate(2 2)">
    <rect width="236" height="16" fill="#B85741"/>

    <g>
      <polygon points="8,0 16,8 8,16 0,8" fill="#EBD8B8"/>
      <polygon points="8,3 13,8 8,13 3,8" fill="#8D2F2B"/>
      <polygon points="24,0 32,8 24,16 16,8" fill="#4F5E52"/>
      <polygon points="24,3 29,8 24,13 19,8" fill="#EBD8B8"/>
      <polygon points="40,0 48,8 40,16 32,8" fill="#EBD8B8"/>
      <polygon points="40,3 45,8 40,13 35,8" fill="#8D2F2B"/>
      <polygon points="56,0 64,8 56,16 48,8" fill="#EBD8B8"/>
      <polygon points="56,3 61,8 56,13 51,8" fill="#5E6E4C"/>
      <polygon points="72,0 80,8 72,16 64,8" fill="#EBD8B8"/>
      <polygon points="72,3 77,8 72,13 67,8" fill="#8D2F2B"/>
      <polygon points="88,0 96,8 88,16 80,8" fill="#4F5E52"/>
      <polygon points="88,3 93,8 88,13 83,8" fill="#EBD8B8"/>
      <polygon points="104,0 112,8 104,16 96,8" fill="#EBD8B8"/>
      <polygon points="104,3 109,8 104,13 99,8" fill="#8D2F2B"/>
      <polygon points="120,0 128,8 120,16 112,8" fill="#EBD8B8"/>
      <polygon points="120,3 125,8 120,13 115,8" fill="#5E6E4C"/>
      <polygon points="136,0 144,8 136,16 128,8" fill="#EBD8B8"/>
      <polygon points="136,3 141,8 136,13 131,8" fill="#8D2F2B"/>
      <polygon points="152,0 160,8 152,16 144,8" fill="#4F5E52"/>
      <polygon points="152,3 157,8 152,13 147,8" fill="#EBD8B8"/>
      <polygon points="168,0 176,8 168,16 160,8" fill="#EBD8B8"/>
      <polygon points="168,3 173,8 168,13 163,8" fill="#8D2F2B"/>
      <polygon points="184,0 192,8 184,16 176,8" fill="#EBD8B8"/>
      <polygon points="184,3 189,8 184,13 179,8" fill="#5E6E4C"/>
      <polygon points="200,0 208,8 200,16 192,8" fill="#EBD8B8"/>
      <polygon points="200,3 205,8 200,13 195,8" fill="#8D2F2B"/>
      <polygon points="216,0 224,8 216,16 208,8" fill="#4F5E52"/>
      <polygon points="216,3 221,8 216,13 211,8" fill="#EBD8B8"/>
      <polygon points="232,0 236,4 232,8 228,4" fill="#EBD8B8"/>
      <polygon points="232,8 236,12 232,16 228,12" fill="#EBD8B8"/>
    </g>

    <rect y="0" width="236" height="1" fill="#7A3C2F"/>
    <rect y="15" width="236" height="1" fill="#7A3C2F"/>
  </g>
</svg>
